<mxfile host="app.diagrams.net" modified="2022-05-18T13:13:53.293Z" agent="5.0 (Macintosh; Intel Mac OS X 10_15_7) AppleWebKit/537.36 (KHTML, like Gecko) Chrome/101.0.4951.54 Safari/537.36" etag="gdTXG_esJ_AgnovqObvK" version="17.5.0" type="github">
  <diagram id="mq_qr5VxWw64eUtlDuq2" name="Page-1">
    <mxGraphModel dx="1072" dy="633" grid="1" gridSize="10" guides="1" tooltips="1" connect="1" arrows="1" fold="1" page="1" pageScale="1" pageWidth="1100" pageHeight="1700" math="0" shadow="0">
      <root>
        <mxCell id="0" />
        <mxCell id="1" parent="0" />
        <mxCell id="cI7t6WCmMyfcCZuIhMqo-14" style="edgeStyle=orthogonalEdgeStyle;rounded=0;orthogonalLoop=1;jettySize=auto;html=1;entryX=0.5;entryY=0;entryDx=0;entryDy=0;exitX=0.092;exitY=0.513;exitDx=0;exitDy=0;exitPerimeter=0;" edge="1" parent="1" source="cI7t6WCmMyfcCZuIhMqo-1" target="cI7t6WCmMyfcCZuIhMqo-2">
          <mxGeometry relative="1" as="geometry" />
        </mxCell>
        <mxCell id="cI7t6WCmMyfcCZuIhMqo-1" value="1. API&lt;br&gt;parse JSON&amp;nbsp;&lt;br&gt;call Lambda" style="ellipse;shape=cloud;whiteSpace=wrap;html=1;" vertex="1" parent="1">
          <mxGeometry x="670" y="160" width="120" height="80" as="geometry" />
        </mxCell>
        <mxCell id="cI7t6WCmMyfcCZuIhMqo-10" style="edgeStyle=orthogonalEdgeStyle;rounded=0;orthogonalLoop=1;jettySize=auto;html=1;entryX=0.55;entryY=0.95;entryDx=0;entryDy=0;entryPerimeter=0;" edge="1" parent="1" source="cI7t6WCmMyfcCZuIhMqo-2" target="cI7t6WCmMyfcCZuIhMqo-1">
          <mxGeometry relative="1" as="geometry" />
        </mxCell>
        <mxCell id="cI7t6WCmMyfcCZuIhMqo-2" value="2. Lambda w endpoint" style="shape=process;whiteSpace=wrap;html=1;backgroundOutline=1;" vertex="1" parent="1">
          <mxGeometry x="420" y="330" width="120" height="60" as="geometry" />
        </mxCell>
        <mxCell id="cI7t6WCmMyfcCZuIhMqo-7" style="edgeStyle=orthogonalEdgeStyle;rounded=0;orthogonalLoop=1;jettySize=auto;html=1;" edge="1" parent="1" source="cI7t6WCmMyfcCZuIhMqo-3" target="cI7t6WCmMyfcCZuIhMqo-5">
          <mxGeometry relative="1" as="geometry" />
        </mxCell>
        <mxCell id="cI7t6WCmMyfcCZuIhMqo-3" value="3. AWS Glue" style="shape=process;whiteSpace=wrap;html=1;backgroundOutline=1;" vertex="1" parent="1">
          <mxGeometry x="150" y="190" width="120" height="60" as="geometry" />
        </mxCell>
        <mxCell id="cI7t6WCmMyfcCZuIhMqo-6" style="edgeStyle=orthogonalEdgeStyle;rounded=0;orthogonalLoop=1;jettySize=auto;html=1;" edge="1" parent="1" source="cI7t6WCmMyfcCZuIhMqo-4" target="cI7t6WCmMyfcCZuIhMqo-3">
          <mxGeometry relative="1" as="geometry" />
        </mxCell>
        <mxCell id="cI7t6WCmMyfcCZuIhMqo-4" value="s3://raw" style="ellipse;whiteSpace=wrap;html=1;" vertex="1" parent="1">
          <mxGeometry x="150" y="50" width="120" height="80" as="geometry" />
        </mxCell>
        <mxCell id="cI7t6WCmMyfcCZuIhMqo-8" style="edgeStyle=orthogonalEdgeStyle;rounded=0;orthogonalLoop=1;jettySize=auto;html=1;entryX=0;entryY=0.5;entryDx=0;entryDy=0;" edge="1" parent="1" source="cI7t6WCmMyfcCZuIhMqo-5" target="cI7t6WCmMyfcCZuIhMqo-2">
          <mxGeometry relative="1" as="geometry" />
        </mxCell>
        <mxCell id="cI7t6WCmMyfcCZuIhMqo-5" value="s3://processed" style="ellipse;whiteSpace=wrap;html=1;" vertex="1" parent="1">
          <mxGeometry x="150" y="320" width="120" height="80" as="geometry" />
        </mxCell>
        <mxCell id="cI7t6WCmMyfcCZuIhMqo-11" value="Post with Query Params" style="text;html=1;strokeColor=none;fillColor=none;align=center;verticalAlign=middle;whiteSpace=wrap;rounded=0;" vertex="1" parent="1">
          <mxGeometry x="540" y="160" width="80" height="30" as="geometry" />
        </mxCell>
        <mxCell id="cI7t6WCmMyfcCZuIhMqo-12" value="Response" style="text;html=1;strokeColor=none;fillColor=none;align=center;verticalAlign=middle;whiteSpace=wrap;rounded=0;" vertex="1" parent="1">
          <mxGeometry x="610" y="320" width="60" height="30" as="geometry" />
        </mxCell>
        <mxCell id="cI7t6WCmMyfcCZuIhMqo-13" value="4. Feature Store" style="html=1;whiteSpace=wrap;shape=isoCube2;backgroundOutline=1;isoAngle=15;" vertex="1" parent="1">
          <mxGeometry x="435" y="490" width="90" height="100" as="geometry" />
        </mxCell>
        <mxCell id="cI7t6WCmMyfcCZuIhMqo-15" value="" style="endArrow=none;dashed=1;html=1;dashPattern=1 3;strokeWidth=2;rounded=0;entryX=0.5;entryY=1;entryDx=0;entryDy=0;" edge="1" parent="1" source="cI7t6WCmMyfcCZuIhMqo-13" target="cI7t6WCmMyfcCZuIhMqo-2">
          <mxGeometry width="50" height="50" relative="1" as="geometry">
            <mxPoint x="435" y="440" as="sourcePoint" />
            <mxPoint x="480" y="400" as="targetPoint" />
          </mxGeometry>
        </mxCell>
        <mxCell id="cI7t6WCmMyfcCZuIhMqo-17" value="1. Create AWS API support POST for processing fraud detection response.&lt;br&gt;2. Create S3 for raw and processed data. Initially store processed data in s3&lt;br&gt;3. Create a Lambda job with an endpoint to be called from API. Lambda will query S3 processed data&lt;br&gt;4. Optional: create a AWS glue job to take s3 raw data and process into useful data model&lt;br&gt;5. Optional: create feature store store data for lambda job to query" style="text;html=1;strokeColor=none;fillColor=none;align=left;verticalAlign=middle;whiteSpace=wrap;rounded=0;" vertex="1" parent="1">
          <mxGeometry x="250" y="650" width="550" height="90" as="geometry" />
        </mxCell>
      </root>
    </mxGraphModel>
  </diagram>
</mxfile>
